HIERARCHY
ROOT Hips
{
	OFFSET 62.890800 8.863803 43.568401
	CHANNELS 6 Xposition Yposition Zposition Zrotation Xrotation Yrotation
	JOINT Chest
	{
		OFFSET -0.160400 1.630001 7.806301
		CHANNELS 6 Xposition Yposition Zposition Zrotation Xrotation Yrotation
		JOINT Chest2
		{
			OFFSET 0.000000 0.000000 3.197998
			CHANNELS 6 Xposition Yposition Zposition Zrotation Xrotation Yrotation
			JOINT Neck
			{
				OFFSET 0.000000 0.000001 7.440701
				CHANNELS 6 Xposition Yposition Zposition Zrotation Xrotation Yrotation
				JOINT Head
				{
					OFFSET 0.000000 0.000000 2.173901
					CHANNELS 6 Xposition Yposition Zposition Zrotation Xrotation Yrotation
					End Site
					{
						OFFSET 0.000000 0.000001 10.420303
					}
				}
			}
			JOINT LeftCollar
			{
				OFFSET 2.426399 -1.880099 4.759399
				CHANNELS 6 Xposition Yposition Zposition Zrotation Xrotation Yrotation
				JOINT LeftShoulder
				{
					OFFSET 4.420197 0.000000 0.000000
					CHANNELS 6 Xposition Yposition Zposition Zrotation Xrotation Yrotation
					JOINT LeftElbow
					{
						OFFSET 0.000000 -0.000001 -10.347099
						CHANNELS 6 Xposition Yposition Zposition Zrotation Xrotation Yrotation
						JOINT LeftWrist
						{
							OFFSET 0.000000 -0.000001 -12.496300
							CHANNELS 6 Xposition Yposition Zposition Zrotation Xrotation Yrotation
							End Site
							{
								OFFSET 0.000000 0.000000 -2.173901
							}
						}
					}
				}
			}
			JOINT RightCollar
			{
				OFFSET -2.781502 -1.903799 5.072601
				CHANNELS 6 Xposition Yposition Zposition Zrotation Xrotation Yrotation
				JOINT RightShoulder
				{
					OFFSET -4.012100 0.000000 0.000000
					CHANNELS 6 Xposition Yposition Zposition Zrotation Xrotation Yrotation
					JOINT RightElbow
					{
						OFFSET 0.000000 -0.000001 -10.346600
						CHANNELS 6 Xposition Yposition Zposition Zrotation Xrotation Yrotation
						JOINT RightWrist
						{
							OFFSET 0.000000 -0.000001 -12.562599
							CHANNELS 6 Xposition Yposition Zposition Zrotation Xrotation Yrotation
							End Site
							{
								OFFSET 0.000000 0.000000 -2.173901
							}
						}
					}
				}
			}
		}
	}
	JOINT LeftHip
	{
		OFFSET 2.047997 -0.047200 -2.693199
		CHANNELS 6 Xposition Yposition Zposition Zrotation Xrotation Yrotation
		JOINT LeftKnee
		{
			OFFSET 0.000000 -0.000001 -18.824400
			CHANNELS 6 Xposition Yposition Zposition Zrotation Xrotation Yrotation
			JOINT LeftAnkle
			{
				OFFSET 0.000000 -0.000002 -19.078199
				CHANNELS 6 Xposition Yposition Zposition Zrotation Xrotation Yrotation
				End Site
				{
					OFFSET 0.000000 -9.342100 0.000001
				}
			}
		}
	}
	JOINT RightHip
	{
		OFFSET -2.129898 -0.022300 -2.538300
		CHANNELS 6 Xposition Yposition Zposition Zrotation Xrotation Yrotation
		JOINT RightKnee
		{
			OFFSET 0.000000 -0.000001 -18.644600
			CHANNELS 6 Xposition Yposition Zposition Zrotation Xrotation Yrotation
			JOINT RightAnkle
			{
				OFFSET 0.000000 -0.000002 -18.801399
				CHANNELS 6 Xposition Yposition Zposition Zrotation Xrotation Yrotation
				End Site
				{
					OFFSET 0.000000 -8.914600 0.000001
				}
			}
		}
	}
}
MOTION
Frames: 4
Frame Time: 0.041667
-15.231209 -45.236893 42.388153 -345.366931 9.382089 11.346700 -0.160406 1.630005 7.806294 -16.593566 3.013862 1.401647 0.000008 0.000000 3.197999 11.293021 -3.542050 1.732492 0.000000 0.000000 7.440689 44.807499 -18.710709 -2.527022 0.000003 0.000001 2.173906 4.009841 -9.091809 6.624597 2.426404 -1.880097 4.759383 -177.253504 177.585465 -172.392650 4.420197 0.000005 -0.000000 -37.100864 -11.112596 -115.209951 -0.000001 0.000003 -10.347092 389.376408 -34.498145 6.521119 -0.000005 0.000008 -12.496302 34.398072 151.661277 162.901542 -2.781506 -1.903793 5.072600 -181.736594 -184.608702 195.993658 -4.012095 -0.000005 -0.000001 -14.710602 -11.550873 456.793435 0.000000 -0.000001 -10.346592 -76.552050 -3.223398 0.663184 0.000007 -0.000002 -12.562593 1217.728418 -173.855526 195.157165 2.047996 -0.047191 -2.693203 120.451493 -31.427541 51.366523 0.000004 -0.000002 -18.824404 163.567895 149.476381 -204.168752 -0.000001 0.000000 -19.078201 -85.600527 23.347151 31.170740 -2.129907 -0.022294 -2.538301 -373.906029 -17.101875 10.547287 -0.000005 0.000002 -18.644600 182.690867 136.184109 172.993706 0.000004 -0.000008 -18.801397 -0.650923 14.131853 -4.648417
-15.778015 -45.013489 42.040741 -345.031405 9.094556 10.801587 -0.160401 1.630002 7.806304 -16.959751 3.963866 2.156338 0.000002 0.000003 3.197996 11.014815 -3.808595 1.685752 -0.000009 -0.000009 7.440702 44.902459 -17.989590 -2.276610 -0.000002 0.000002 2.173906 4.010274 -9.003891 6.745184 2.426403 -1.880101 4.759392 -177.190748 177.491591 -171.879579 4.420207 0.000013 0.000002 -38.042593 -11.399785 -114.748216 0.000010 0.000002 -10.347091 390.413995 -33.149131 6.047199 0.000005 0.000008 -12.496295 34.705629 151.988224 164.578900 -2.781506 -1.903802 5.072597 -180.656017 -184.594468 195.863912 -4.012096 -0.000001 0.000005 -14.471349 -11.934802 457.492409 0.000002 -0.000002 -10.346587 -76.603959 -3.345408 0.728085 -0.000003 -0.000003 -12.562595 1217.685470 -174.025352 195.762292 2.047996 -0.047199 -2.693201 122.060248 -30.306243 53.085385 0.000000 0.000000 -18.824402 162.381218 148.681060 -205.009002 0.000001 -0.000006 -19.078203 -86.055288 23.653939 31.671772 -2.129903 -0.022298 -2.538300 -377.396365 -19.294335 9.688541 0.000003 0.000001 -18.644598 191.687620 132.925604 169.133679 0.000000 0.000006 -18.801401 -3.320565 9.635636 -7.862289
-16.332909 -44.780693 41.685349 -344.757569 8.710358 10.166236 -0.160402 1.629995 7.806303 -17.240321 4.855902 2.826735 0.000011 0.000001 3.197996 10.668609 -3.962749 1.643963 0.000003 0.000010 7.440696 44.852312 -16.837658 -2.053119 -0.000007 0.000001 2.173913 3.920910 -8.902993 6.890736 2.426407 -1.880093 4.759387 -177.426335 177.188235 -171.384336 4.420195 0.000005 0.000000 -38.616698 -11.885569 -113.862143 0.000004 -0.000009 -10.347092 391.457566 -32.309841 5.313883 -0.000005 0.000003 -12.496297 35.275390 152.348025 166.283360 -2.781500 -1.903795 5.072595 -181.571222 -187.438286 196.095441 -4.012097 -0.000002 -0.000007 -13.212294 -15.580568 457.423233 -0.000000 0.000001 -10.346587 -77.938421 -3.307111 0.759908 0.000001 -0.000003 -12.562597 1218.885506 -173.937256 195.713975 2.047992 -0.047197 -2.693194 123.428567 -29.176639 54.534443 -0.000001 0.000000 -18.824400 161.450331 148.034583 -205.921898 -0.000007 -0.000007 -19.078201 -86.573782 24.042143 32.104543 -2.129898 -0.022309 -2.538300 -381.088192 -21.560892 8.610306 -0.000001 -0.000004 -18.644598 199.924924 129.804822 165.301697 -0.000000 -0.000003 -18.801401 -5.438819 5.685621 -10.566309
-16.897919 -44.542088 41.328545 -344.294810 8.256347 9.487701 -0.160400 1.629994 7.806309 -17.714823 5.816207 3.517376 0.000004 0.000003 3.197997 10.317796 -4.113701 1.597796 0.000002 -0.000008 7.440696 44.578357 -15.442151 -2.006676 -0.000001 0.000002 2.173904 3.923361 -8.750370 7.023486 2.426410 -1.880101 4.759390 -177.689953 176.890179 -171.019399 4.420192 0.000005 0.000004 -39.146686 -12.485953 -112.748419 -0.000001 0.000002 -10.347092 394.312613 -31.577290 5.685688 -0.000001 -0.000001 -12.496300 34.759116 152.658116 167.808937 -2.781494 -1.903799 5.072596 -180.921042 -188.396698 196.237769 -4.012097 0.000007 0.000004 -12.726539 -17.280597 457.981259 0.000005 -0.000002 -10.346583 -78.895269 -3.412313 0.720482 -0.000001 -0.000003 -12.562586 1219.813647 -173.854324 195.863393 2.048001 -0.047206 -2.693192 124.457740 -28.102325 55.816791 -0.000006 0.000001 -18.824400 161.470890 147.914864 -207.193324 -0.000003 -0.000001 -19.078203 -88.197980 24.353419 33.335811 -2.129893 -0.022304 -2.538294 -384.733245 -23.613812 7.452332 0.000004 0.000004 -18.644602 207.235753 126.885681 161.566349 -0.000003 -0.000005 -18.801395 -6.965736 1.832493 -13.923505
